<svg viewBox="0 0 24 24" xmlns="http://www.w3.org/2000/svg" height="24" width="24"
    id="Apple-Logo--Streamline-Ultimate.svg">
    <desc>Apple Logo Streamline Icon: https://streamlinehq.com</desc>
    <path
        d="M17.8284 13.2615C17.8463 11.5992 18.7178 10.0628 20.1354 9.1945C19.2353 7.9172 17.7896 7.1343 16.228 7.0786C14.562 6.91 12.9842 8.0586 12.1394 8.0586S9.9941 7.1002 8.6162 7.1276C6.7741 7.1799 5.0953 8.1972 4.1963 9.806C2.3137 13.0734 3.7161 17.9166 5.5517 20.5686C6.4474 21.8652 7.5186 23.3224 8.922 23.2685C10.2754 23.2156 10.784 22.3944 12.4216 22.3944S14.515 23.2685 15.9497 23.2421C17.405 23.2156 18.3272 21.921 19.2171 20.6195C19.8543 19.6835 20.3528 18.6602 20.6969 17.5815C18.9638 16.8436 17.836 15.1452 17.8284 13.2615Z"
        fill="none" stroke="currentColor" stroke-linecap="round" stroke-linejoin="round" stroke-width="1"></path>
    <path
        d="M15.3137 4.3296C16.1638 3.3312 16.5853 2.0376 16.4868 0.73C15.2024 0.8538 14.0141 1.4643 13.1655 2.4362C12.312 3.3894 11.8813 4.6479 11.9718 5.9241C13.2731 5.941 14.5082 5.3517 15.3137 4.3296Z"
        fill="none" stroke="currentColor" stroke-linecap="round" stroke-linejoin="round" stroke-width="1"></path>
</svg>