<svg viewBox="0 0 24 24" xmlns="http://www.w3.org/2000/svg" height="24" width="24"
    id="Microsoft-Logo--Streamline-Ultimate.svg">
    <desc>Microsoft Logo Streamline Icon: https://streamlinehq.com</desc>
    <path
        d="M14.821 22.5a10.169 10.169 0 0 1 -4.155 -1.463l2.03 -7.049a6.888 6.888 0 0 0 4.4 1.432 11.424 11.424 0 0 0 3.844 -0.732l-1.957 6.84a11 11 0 0 1 -4.164 0.972"
        fill="none" stroke="currentColor" stroke-linecap="round" stroke-linejoin="round" stroke-width="1"></path>
    <path
        d="M8.371 20.286a6.91 6.91 0 0 0 -4.045 -1.416 10.328 10.328 0 0 0 -3.826 0.868l2.036 -7.06a11.638 11.638 0 0 1 4.033 -0.93 7.3 7.3 0 0 1 3.91 1.349c-0.27 0.923 -1.69 5.772 -2.108 7.189Z"
        fill="none" stroke="currentColor" stroke-linecap="round" stroke-linejoin="round" stroke-width="1"></path>
    <path
        d="M12.932 3.086v0.005c-0.418 1.432 -1.657 5.675 -2.073 7.087a6.879 6.879 0 0 0 -3.91 -1.4A10.627 10.627 0 0 0 3 9.7l2.008 -7.044A10.624 10.624 0 0 1 8.8 1.767a7.2 7.2 0 0 1 4.132 1.319Z"
        fill="none" stroke="currentColor" stroke-linecap="round" stroke-linejoin="round" stroke-width="1"></path>
    <path
        d="M17.558 12.5a7.812 7.812 0 0 1 -4.378 -1.368l-0.022 -0.015L15.217 4a7 7 0 0 0 4.349 1.455 9.782 9.782 0 0 0 3.934 -0.9l-2.029 6.989 -0.01 0.006 0 0.009a9.1 9.1 0 0 1 -3.9 0.938"
        fill="none" stroke="currentColor" stroke-linecap="round" stroke-linejoin="round" stroke-width="1"></path>
</svg>