<svg xmlns="http://www.w3.org/2000/svg" width="515.45" height="781.701" viewBox="0 0 515.45 781.701">
  <g transform="translate(6459.768 -403.898)">
    <g transform="translate(-6378.701 1105.693)" opacity="0.16" style="isolation: isolate">
      <g transform="translate(0 -0.001)">
        <path d="M1677.772,237.575c0-.252-.174-.49-.559-.671l-13.188-6.412,8.207-8.409c.363-.363.222-.807-.383-1.109a3.387,3.387,0,0,0-2.2-.141l-16.213,4.4-13.188-6.473a3.258,3.258,0,0,0-2.2-.161c-.746.2-1.129.585-.988,1.008l3.166,9.135-16.354,4.4c-.637.155-.986.476-.98.829l-.024,0v19.35h.024a.506.506,0,0,0,.012.19.883.883,0,0,0,.524.524,3.088,3.088,0,0,0,1.048.242l18.169,1.25,3.105,9.2a1.006,1.006,0,0,0,.524.524,3.039,3.039,0,0,0,1.049.242,2.619,2.619,0,0,0,1.976-.522l8.046-8.37,18.27,1.291a2.638,2.638,0,0,0,1.976-.522.6.6,0,0,0,.176-.428l.022,0v-19.35Z" transform="translate(-1622.87 -218.477)" fill="none" stroke="#fff" stroke-linejoin="round" stroke-width="2"/>
        <line y2="19.104" transform="translate(24.179 27.121)" fill="none" stroke="#fff" stroke-linecap="round" stroke-miterlimit="10" stroke-width="2"/>
        <line y2="19.104" transform="translate(34.821 18.859)" fill="none" stroke="#fff" stroke-linecap="round" stroke-miterlimit="10" stroke-width="2"/>
        <line y2="19.104" transform="translate(19.418 18.113)" fill="none" stroke="#fff" stroke-linecap="round" stroke-miterlimit="10" stroke-width="2"/>
        <path d="M1641.166,229.636m30.691-8.661a3.352,3.352,0,0,0-2.2-.153l-16.21,4.406-13.2-6.479a3.31,3.31,0,0,0-2.2-.155c-.74.2-1.129.589-.978,1.01l3.162,9.127-16.352,4.4c-.74.188-1.127.587-.978,1.008a.928.928,0,0,0,.538.52,2.721,2.721,0,0,0,1.046.258l18.165,1.236,3.1,9.2a.984.984,0,0,0,.536.522,2.859,2.859,0,0,0,1.049.254,2.637,2.637,0,0,0,1.964-.524l8.058-8.368,18.269,1.287a2.622,2.622,0,0,0,1.964-.524c.363-.387.224-.813-.373-1.107l-13.188-6.408,8.2-8.4c.363-.373.224-.813-.373-1.107" transform="translate(-1622.871 -218.476)" fill="none" stroke="#fff" stroke-miterlimit="10" stroke-width="2"/>
      </g>
      <path d="M1629.911,219.035V229.07l3.166-.9Z" transform="translate(-1615.716 -217.909)" fill="none" stroke="#fff" stroke-linejoin="round" stroke-width="2"/>
      <path d="M1651.71,220.155v12.719l-8.429-4.087Z" transform="translate(-1602.125 -216.771)" fill="none" stroke="#fff" stroke-linejoin="round" stroke-width="2"/>
    </g>
    <g transform="translate(-6213.588 539.791)" opacity="0.16" style="isolation: isolate">
      <g transform="translate(0 -0.001)">
        <path d="M1657.188,230.414c0-.158-.109-.306-.349-.42l-8.243-4.008,5.13-5.256c.227-.227.139-.5-.239-.693a2.118,2.118,0,0,0-1.374-.088l-10.134,2.748-8.243-4.046a2.037,2.037,0,0,0-1.374-.1c-.466.126-.706.365-.617.63l1.979,5.71-10.222,2.748c-.4.1-.616.3-.613.518h-.015v12.095h.015a.316.316,0,0,0,.008.118.552.552,0,0,0,.328.328,1.928,1.928,0,0,0,.655.151l11.356.781,1.941,5.747a.629.629,0,0,0,.328.328,1.9,1.9,0,0,0,.655.151,1.638,1.638,0,0,0,1.235-.327l5.029-5.232,11.419.807a1.649,1.649,0,0,0,1.235-.327.371.371,0,0,0,.11-.267h.014V230.416Z" transform="translate(-1622.871 -218.477)" fill="none" stroke="#fff" stroke-linejoin="round" stroke-width="2"/>
        <line y2="11.941" transform="translate(15.113 16.952)" fill="none" stroke="#fff" stroke-linecap="round" stroke-miterlimit="10" stroke-width="2"/>
        <line y2="11.941" transform="translate(21.765 11.788)" fill="none" stroke="#fff" stroke-linecap="round" stroke-miterlimit="10" stroke-width="2"/>
        <line y2="11.941" transform="translate(12.137 11.321)" fill="none" stroke="#fff" stroke-linecap="round" stroke-miterlimit="10" stroke-width="2"/>
        <path d="M1634.307,225.452m19.184-5.413a2.1,2.1,0,0,0-1.374-.1l-10.132,2.754-8.252-4.05a2.069,2.069,0,0,0-1.374-.1c-.462.126-.706.368-.611.631l1.976,5.7-10.221,2.751c-.463.117-.7.367-.611.63a.579.579,0,0,0,.336.325,1.7,1.7,0,0,0,.654.161l11.354.773,1.937,5.75a.615.615,0,0,0,.335.326,1.786,1.786,0,0,0,.655.159,1.648,1.648,0,0,0,1.228-.328l5.037-5.231,11.419.8a1.639,1.639,0,0,0,1.228-.328c.227-.242.14-.508-.233-.692l-8.243-4.006,5.125-5.252c.227-.233.14-.508-.233-.692" transform="translate(-1622.871 -218.477)" fill="none" stroke="#fff" stroke-miterlimit="10" stroke-width="2"/>
      </g>
      <path d="M1629.911,219.035v6.272l1.979-.562Z" transform="translate(-1621.038 -218.332)" fill="none" stroke="#fff" stroke-linejoin="round" stroke-width="2"/>
      <path d="M1648.549,220.155v7.95l-5.269-2.555Z" transform="translate(-1617.556 -218.04)" fill="none" stroke="#fff" stroke-linejoin="round" stroke-width="2"/>
    </g>
    <g transform="translate(-6020.584 653.928)" opacity="0.16" style="isolation: isolate">
      <g transform="translate(0 -0.001)">
        <path d="M1666.343,233.6c0-.2-.137-.388-.442-.532l-10.442-5.078,6.5-6.658c.287-.287.176-.639-.3-.878a2.682,2.682,0,0,0-1.74-.112l-12.837,3.481-10.442-5.125a2.579,2.579,0,0,0-1.74-.128c-.591.16-.894.463-.782.8l2.507,7.233-12.949,3.481c-.5.123-.781.377-.776.656l-.019,0v15.322h.019a.4.4,0,0,0,.01.15.7.7,0,0,0,.415.415,2.446,2.446,0,0,0,.83.192l14.386.99,2.459,7.281a.8.8,0,0,0,.415.415,2.406,2.406,0,0,0,.83.192,2.074,2.074,0,0,0,1.565-.414l6.371-6.628,14.466,1.022a2.089,2.089,0,0,0,1.565-.414.47.47,0,0,0,.139-.339l.018,0V233.6Z" transform="translate(-1622.871 -218.477)" fill="none" stroke="#fff" stroke-linejoin="round" stroke-width="2"/>
        <line y2="15.400" transform="translate(19.146 21.475)" fill="none" stroke="#fff"
              stroke-linecap="round" stroke-miterlimit="10" stroke-width="2"/>
        <line y2="15.400" transform="translate(27.572 14.933)" fill="none" stroke="#fff"
              stroke-linecap="round" stroke-miterlimit="10" stroke-width="2"/>
        <line y2="15.400" transform="translate(15.376 14.342)" fill="none" stroke="#fff"
              stroke-linecap="round" stroke-miterlimit="10" stroke-width="2"/>
        <path d="M1637.358,227.313m24.3-6.858a2.654,2.654,0,0,0-1.74-.121l-12.836,3.489-10.453-5.13a2.621,2.621,0,0,0-1.74-.123c-.586.16-.894.466-.774.8l2.5,7.227-12.948,3.486c-.586.148-.892.465-.774.8a.734.734,0,0,0,.426.412,2.155,2.155,0,0,0,.828.2l14.383.979,2.454,7.284a.779.779,0,0,0,.425.414,2.262,2.262,0,0,0,.83.2,2.088,2.088,0,0,0,1.555-.415l6.38-6.626,14.466,1.019a2.076,2.076,0,0,0,1.555-.415c.287-.307.177-.643-.3-.877l-10.442-5.074,6.492-6.653c.287-.3.177-.643-.3-.877" transform="translate(-1622.871 -218.476)" fill="none" stroke="#fff" stroke-miterlimit="10" stroke-width="2"/>
      </g>
      <path d="M1629.911,219.035v7.945l2.507-.712Z" transform="translate(-1618.671 -218.144)" fill="none" stroke="#fff" stroke-linejoin="round" stroke-width="2"/>
      <path d="M1649.955,220.155v10.071l-6.674-3.236Z" transform="translate(-1610.693 -217.476)" fill="none" stroke="#fff" stroke-linejoin="round" stroke-width="2"/>
    </g>
    <g transform="translate(-6422.17 629.111)" opacity="0.16">
      <path d="M1616.642,194.259c-7.952,0-14.406,2.5-14.406,5.583v9.5c0,3.082,6.477,5.583,14.406,5.583s14.393-2.5,14.393-5.583v-9.5C1631.035,196.762,1624.594,194.259,1616.642,194.259Z" transform="translate(-1602.236 -194.258)" fill="none" stroke="#fff" stroke-linejoin="round" stroke-width="2"/>
      <path d="M1616.636,194.259c7.936,0,14.364,2.5,14.364,5.572s-6.453,5.572-14.364,5.572-14.376-2.5-14.376-5.572S1608.7,194.259,1616.636,194.259Z" transform="translate(-1602.231 -194.258)" fill="none" stroke="#fff" stroke-linejoin="round" stroke-width="2"/>
    </g>
    <g transform="translate(-5987 1154.695)" opacity="0.16">
      <path d="M1623.086,194.259c-11.509,0-20.85,3.622-20.85,8.081v13.742c0,4.46,9.375,8.081,20.85,8.081s20.832-3.62,20.832-8.081V202.34C1643.918,197.881,1634.595,194.259,1623.086,194.259Z" transform="translate(-1602.236 -194.258)" fill="none" stroke="#fff" stroke-linejoin="round" stroke-width="2"/>
      <path d="M1623.067,194.259c11.485,0,20.789,3.613,20.789,8.065s-9.339,8.065-20.789,8.065-20.807-3.613-20.807-8.065S1611.582,194.259,1623.067,194.259Z" transform="translate(-1602.218 -194.258)" fill="none" stroke="#fff" stroke-linejoin="round" stroke-width="2"/>
    </g>
    <g transform="translate(-6216.768 953.469)" opacity="0.16">
      <path d="M1630.478,235.984l-40.692,6.244V260.4l28.406,11.793,12.286-18.037Z" transform="translate(-1589.786 -235.984)" fill="none" stroke="#fff" stroke-linejoin="round" stroke-width="2"/>
      <path d="M1589.786,242.218l40.633-6.234-12.269,18.01h0Z" transform="translate(-1589.786 -235.984)" fill="none" stroke="#fff" stroke-linejoin="round" stroke-width="2"/>
      <line x1="0.041" y1="18.196" transform="translate(28.365 18.011)" fill="none" stroke="#fff" stroke-linecap="round" stroke-linejoin="round" stroke-width="2"/>
    </g>
    <g transform="translate(-6458.768 432.842)" opacity="0.16">
      <path d="M1618.742,235.984l-28.956,4.443v12.93L1610,261.749l8.743-12.835Z" transform="translate(-1589.786 -235.984)" fill="none" stroke="#fff" stroke-linejoin="round" stroke-width="2"/>
      <path d="M1589.786,240.42l28.914-4.436-8.73,12.816h0Z" transform="translate(-1589.786 -235.984)" fill="none" stroke="#fff" stroke-linejoin="round" stroke-width="2"/>
      <line x1="0.029" y1="12.948" transform="translate(20.184 12.816)" fill="none" stroke="#fff" stroke-linecap="round" stroke-linejoin="round" stroke-width="2"/>
    </g>
    <g transform="translate(-6078.074 404.898)" opacity="0.16">
      <path d="M1621.19,235.984l-31.4,4.819v14.023l21.922,9.1,9.481-13.92Z" transform="translate(-1589.786 -235.984)" fill="none" stroke="#fff" stroke-linejoin="round" stroke-width="2"/>
      <path d="M1589.786,240.8l31.358-4.811-9.468,13.9h0Z" transform="translate(-1589.786 -235.984)" fill="none" stroke="#fff" stroke-linejoin="round" stroke-width="2"/>
      <line x1="0.032" y1="14.043" transform="translate(21.89 13.899)" fill="none" stroke="#fff" stroke-linecap="round" stroke-linejoin="round" stroke-width="2"/>
    </g>
  </g>
</svg>
